<svg width="140" height="43" viewBox="0 0 140 43" fill="none" xmlns="http://www.w3.org/2000/svg">
<g clip-path="url(#clip0_15_8)">
<path d="M0.304862 42.9282C0.0843536 42.9216 0.00976996 42.7023 0.123267 42.5518C1.48199 40.7908 2.84719 39.0364 4.20591 37.2754C4.37453 37.0561 4.56586 36.8924 4.85771 36.8859C7.09846 36.8859 9.22571 36.8859 11.4113 36.8859C11.9723 36.8859 12.7895 36.5945 13.1884 36.241C14.5925 35.0038 15.6042 33.4752 16.5057 31.8582C17.9261 29.3117 18.8632 26.572 19.7031 23.7898C20.8413 20.0191 21.999 16.2549 23.1307 12.4809C23.2345 12.1339 23.3901 12.0456 23.7274 12.0488C27.3366 12.0587 30.9458 12.0587 34.555 12.0488C34.9149 12.0488 35.0219 12.0947 34.9084 12.4973C33.3616 17.9439 31.8537 23.4036 30.2875 28.8469C29.4736 31.6782 28.1343 34.2542 26.2146 36.4964C23.802 39.3113 20.7829 41.1607 17.2483 42.1786C15.4226 42.7056 13.5645 42.9642 11.6643 42.9544C10.0332 42.9446 0.454029 42.9282 0.304862 42.9282Z" fill="white"/>
<path d="M10.753 9.48245C11.1681 9.48573 11.5832 9.489 11.9982 9.489H17.3488C17.7963 9.489 18.2438 9.48573 18.6913 9.48573C20.971 9.48573 23.2506 9.48573 25.5271 9.48573C28.0597 9.48573 30.589 9.48245 33.1216 9.489H35.5602C35.8131 9.45954 35.9039 9.33189 35.985 9.04385C36.1504 8.46449 36.2801 7.90477 36.4228 7.33524C37.0746 4.70031 36.3514 2.80186 34.3863 1.45985C33.5075 0.857578 32.525 0.513892 31.484 0.33714C29.5903 0.0163663 27.6705 0.0327323 25.7606 0.0196395C19.6155 -0.0163657 13.4705 0.00981991 7.32542 0.0130931C6.66714 0.0130931 6.27152 0.376418 6.26503 0.985233C6.25855 1.57441 6.62822 1.89845 7.31245 1.89518C9.52402 1.89191 11.7356 1.88536 13.9471 1.88536C14.3979 1.88536 14.7481 2.11776 14.8746 2.48436C14.9978 2.84441 14.8551 3.26338 14.5211 3.54487C14.3006 3.73145 14.0477 3.79364 13.7656 3.79036C13.1138 3.78382 12.462 3.78382 11.8134 3.78709C11.2103 3.78709 10.7628 4.21915 10.7628 4.79851C10.7628 5.35168 11.1584 5.69536 11.7972 5.69536C12.7733 5.69536 13.7493 5.68882 14.7287 5.69536C15.3351 5.69864 15.6755 6.11106 15.5945 6.7166C15.5231 7.2665 15.0854 7.59055 14.4044 7.59055C11.3789 7.59055 8.35338 7.59055 5.32788 7.59055C4.20264 7.59055 3.0774 7.57745 1.94891 7.584C1.41061 7.58727 0.95014 8.07171 0.959868 8.58232C0.969596 9.1224 1.36846 9.47263 1.96513 9.47263C4.89659 9.46282 7.82481 9.44972 10.753 9.48245Z" fill="white"/>
<path d="M4.54963 5.69584C3.34332 5.69584 2.13377 5.69584 0.927459 5.69584C0.327547 5.69584 0.0032707 5.44053 2.79334e-05 4.96592C-0.00321483 4.1378 0.275663 3.78757 0.950159 3.78757C3.39196 3.78757 5.83377 3.80721 8.27557 3.77448C8.92737 3.76793 9.32947 4.19345 9.34568 4.64842C9.36514 5.1885 8.85603 5.68602 8.24963 5.6893C7.11142 5.69912 5.96996 5.69257 4.83175 5.69257C4.74095 5.69584 4.64367 5.69584 4.54963 5.69584Z" fill="white"/>
<path d="M78.1086 42.9446C78.9226 40.7548 79.7138 38.624 80.5083 36.4899C82.4961 31.148 84.4904 25.8094 86.4685 20.4643C86.5885 20.1435 86.7344 20.0388 87.0717 20.0486C88.3915 20.0813 89.7145 20.0944 91.0376 20.0813C91.404 20.078 91.4267 20.2024 91.3424 20.4937C91.2451 20.8309 91.177 21.1746 91.0927 21.5281C91.3002 21.5674 91.404 21.4299 91.5305 21.3611C92.9054 20.5952 94.3484 20.0191 95.9114 19.8031C96.8064 19.6787 97.682 19.7835 98.5154 20.137C99.7801 20.677 100.38 21.7212 100.571 23.037C100.815 24.6965 100.37 26.248 99.7379 27.7472C98.5186 30.6505 96.6508 33.0072 93.8912 34.5619C92.0331 35.6094 90.0518 35.8581 87.9796 35.3573C87.6651 35.2821 87.3505 35.1839 87.0781 35.0071C86.7993 34.8238 86.6858 34.85 86.5723 35.1937C85.8524 37.3671 85.1065 39.5372 84.3672 41.7041C84.231 42.1034 84.1856 42.6238 83.9067 42.8628C83.6213 43.105 83.0993 42.9282 82.6809 42.9315C81.1763 42.9479 79.6717 42.9446 78.1086 42.9446ZM91.271 30.7781C91.4786 30.7552 91.6926 30.7487 91.8969 30.7061C93.5864 30.3526 94.9873 28.7553 95.1786 26.9747C95.318 25.6785 94.7278 24.9551 93.4372 24.8438C91.644 24.6867 89.7113 26.0385 89.1503 27.8421C88.6412 29.4656 89.5848 30.7683 91.271 30.7781Z" fill="white"/>
<path d="M140 19.4071C139.99 19.6264 139.88 19.7279 139.809 19.8424C136.64 24.8013 133.482 29.7602 130.301 34.7126C128.751 37.1249 126.925 39.2885 124.548 40.9218C122.787 42.1296 120.884 42.8988 118.711 42.7843C117.33 42.7123 116.039 42.3031 114.82 41.6452C114.603 41.5274 114.599 41.4357 114.726 41.2328C115.754 39.5733 116.772 37.9105 117.784 36.2411C117.923 36.0087 117.988 36.0186 118.209 36.1724C119.72 37.2133 121.759 37.6388 123.264 36.2575C123.446 36.0906 123.527 35.9302 123.517 35.6782C123.326 30.5851 123.147 25.492 122.95 20.4021C122.933 19.9832 123.014 19.8588 123.455 19.8555C125.099 19.849 126.747 19.7999 128.391 19.741C128.709 19.7311 128.793 19.7933 128.783 20.1239C128.696 22.6901 128.624 25.2596 128.55 27.829C128.547 27.9927 128.55 28.1596 128.55 28.356C128.722 28.2709 128.767 28.1138 128.845 27.9927C130.521 25.3381 132.195 22.6836 133.858 20.0192C134.007 19.7802 134.163 19.6657 134.455 19.6559C136.293 19.5838 138.132 19.4922 140 19.4071Z" fill="white"/>
<path d="M73.4325 34.2799C71.7917 35.1931 70.0633 35.7496 68.1598 35.6383C65.9547 35.5073 64.2815 33.9755 63.928 31.7726C63.6718 30.1753 63.9669 28.6565 64.6155 27.2131C66.3471 23.3671 69.204 20.8336 73.3061 19.8255C74.1589 19.616 75.0312 19.5898 75.9035 19.6945C76.8796 19.8124 77.5314 20.1659 78.3356 21.0202C78.4588 20.6994 78.5885 20.3917 78.6923 20.0742C78.7539 19.8811 78.848 19.8091 79.0523 19.8091C80.5018 19.8189 81.9481 19.8222 83.3976 19.8091C83.8548 19.8058 83.6019 20.0709 83.5565 20.215C82.4669 23.5504 81.3676 26.8792 80.2715 30.2113C79.7235 31.8774 79.1722 33.5434 78.6275 35.2095C78.5626 35.4059 78.5205 35.5532 78.2481 35.5499C76.5618 35.5335 74.8756 35.5433 73.1342 35.5433C73.2607 35.1342 73.3807 34.7545 73.5006 34.3748C73.5104 34.3388 73.5233 34.3028 73.5331 34.2701C73.5006 34.2701 73.465 34.2766 73.4325 34.2799ZM74.0098 24.5389C72.116 24.5585 70.0179 26.1853 69.5607 27.9921C69.1164 29.7596 70.4265 31.1605 72.1517 30.663C74.0649 30.1098 75.3523 28.8104 75.8841 26.8596C76.257 25.4946 75.4301 24.5258 74.0098 24.5389Z" fill="white"/>
<path d="M110.575 34.2801C108.934 35.1933 107.206 35.7498 105.302 35.6385C103.097 35.5075 101.424 33.9757 101.071 31.7728C100.814 30.1755 101.109 28.6567 101.758 27.2133C103.49 23.3672 106.347 20.8338 110.449 19.8256C111.302 19.6162 112.177 19.5703 113.046 19.7013C113.999 19.842 114.869 20.1759 115.465 21.0564C115.601 20.7029 115.731 20.3952 115.832 20.0777C115.893 19.8846 115.987 19.8126 116.192 19.8126C117.641 19.8224 119.087 19.8256 120.537 19.8126C120.994 19.8093 120.741 20.0744 120.696 20.2184C119.606 23.5538 118.507 26.8827 117.411 30.2148C116.863 31.8808 116.312 33.5469 115.767 35.213C115.702 35.4093 115.66 35.5566 115.387 35.5534C113.701 35.537 112.015 35.5468 110.274 35.5468C110.4 35.1377 110.52 34.758 110.64 34.3783C110.65 34.3423 110.663 34.3063 110.672 34.2735C110.643 34.2703 110.611 34.2768 110.575 34.2801ZM111.165 24.5391C109.252 24.5521 107.138 26.2018 106.694 28.0217C106.269 29.7696 107.576 31.1542 109.285 30.6632C111.201 30.1133 112.485 28.8171 113.027 26.8696C113.406 25.5079 112.582 24.5292 111.165 24.5391Z" fill="white"/>
<path d="M47.5033 30.8922C46.3911 32.5419 44.9383 33.6777 43.2488 34.5221C41.5756 35.3601 39.818 35.8478 37.9242 35.7201C34.9798 35.5205 32.9595 33.4191 32.9628 30.4339C32.966 27.4979 34.1529 25.0331 36.2347 23.0299C38.3944 20.9482 40.9789 19.7698 43.9914 19.652C45.1523 19.6062 46.297 19.7175 47.3769 20.1954C48.8264 20.8369 49.5852 21.9989 49.7409 23.5537C49.916 25.2852 49.3874 26.8858 48.7453 28.4602C48.6448 28.7089 48.4567 28.6402 48.2881 28.6435C45.068 28.6828 41.8447 28.7286 38.6246 28.7449C38.2323 28.7482 38.1512 28.8628 38.1901 29.2261C38.3296 30.4961 38.9457 31.0853 40.2039 31.0886C41.4459 31.0918 42.5516 30.7023 43.4985 29.8807C43.6282 29.7695 43.7288 29.6647 43.9363 29.7367C45.1069 30.1262 46.2841 30.4994 47.5033 30.8922ZM39.604 25.1673C41.141 25.1673 42.6165 25.1673 44.092 25.1673C44.1341 25.1673 44.1763 25.1608 44.2184 25.1673C44.4843 25.2164 44.5557 25.0626 44.5849 24.8367C44.6756 24.1297 44.2152 23.5078 43.4856 23.3573C42.1041 23.0758 40.4049 23.845 39.604 25.1673Z" fill="white"/>
<path d="M63.3086 15.9765C62.7086 17.2203 62.1444 18.3888 61.5575 19.5966C62.6665 19.5966 63.7398 19.5966 64.8489 19.5966C64.4987 20.9747 64.1582 22.3134 63.8144 23.6554C63.6199 24.4115 63.6166 24.4082 62.8319 24.4082C61.7488 24.4082 60.6657 24.4213 59.5826 24.4017C59.281 24.3951 59.1384 24.5032 59.0151 24.7716C58.5806 25.7241 58.1072 26.6569 57.6694 27.6094C57.4197 28.1528 57.2413 28.719 57.2608 29.3311C57.2803 30.0741 57.6467 30.4146 58.386 30.3818C59.0216 30.3556 59.5988 30.1429 60.1242 29.7959C60.5101 29.5406 60.8797 29.2624 61.2591 28.9907C61.3726 29.0595 61.3175 29.1707 61.3175 29.2591C61.3013 30.4375 61.2753 31.6158 61.2591 32.7942C61.2559 32.9775 61.2072 33.1084 61.071 33.2393C58.8011 35.3538 56.1388 36.2147 53.0776 35.7957C52.6463 35.7368 52.2313 35.6026 51.8421 35.3898C51.0574 34.9643 50.6488 34.2933 50.5969 33.403C50.5158 32.0773 50.9342 30.8564 51.4173 29.6552C52.0464 28.0906 52.8539 26.6111 53.5835 25.0956C53.6743 24.9058 53.7651 24.7192 53.8916 24.4541C53.2009 24.4541 52.5782 24.4377 51.9556 24.4606C51.6249 24.4737 51.5892 24.3821 51.693 24.0809C52.1437 22.7553 52.575 21.4231 52.9998 20.0876C53.0776 19.8421 53.1879 19.7603 53.4441 19.7603C54.2612 19.757 55.0752 19.7112 55.8923 19.7145C56.1712 19.7145 56.3171 19.6326 56.4371 19.3741C56.8814 18.4281 57.3516 17.492 57.8153 16.5526C57.8964 16.3889 57.9548 16.2285 58.1947 16.2187C59.8647 16.1434 61.5477 16.0583 63.3086 15.9765Z" fill="white"/>
</g>
<defs>
<clipPath id="clip0_15_8">
<rect width="140" height="43" fill="white"/>
</clipPath>
</defs>
</svg>
